<svg width="100" height="100" viewBox="0 0 100 100" fill="none" xmlns="http://www.w3.org/2000/svg">
<g opacity="0.51" clip-path="url(#clip0)" filter="url(#filter0_d)">
<path d="M80.9652 57.3716C84.8095 51.5331 87.0507 44.5499 87.0507 37.0514C87.0507 16.6211 70.4289 0 49.9986 0C29.5683 0 12.9472 16.6211 12.9472 37.0514C12.9472 44.5499 15.1884 51.5331 19.032 57.3716L4.53906 78.508L21.123 75.4161L24.2155 92L37.883 72.0666C41.6817 73.3848 45.7577 74.1028 49.9986 74.1028C54.2402 74.1028 58.3162 73.3848 62.1142 72.0666L75.7823 92L78.8742 75.4161L95.4581 78.508L80.9652 57.3716ZM27.146 78.1374L25.4593 69.0912L16.4139 70.7786L22.5176 61.8764C25.4411 65.1093 28.926 67.8243 32.816 69.8697L27.146 78.1374ZM18.3694 37.0514C18.3694 19.6112 32.5584 5.42221 49.9986 5.42221C67.4395 5.42221 81.6285 19.6112 81.6285 37.0514C81.6285 54.4923 67.4395 68.6813 49.9986 68.6813C32.5584 68.6813 18.3694 54.4923 18.3694 37.0514ZM74.5379 69.0912L72.8512 78.1374L67.1819 69.8697C71.0719 67.8243 74.5568 65.1093 77.4803 61.8764L83.584 70.7779L74.5379 69.0912Z" fill="white" fill-opacity="0.48"/>
<path d="M43.3939 45.1885L34.5779 36.3733L30.7441 40.2071L43.3939 52.8568L69.2541 26.9973L65.4203 23.1635L43.3939 45.1885Z" fill="white" fill-opacity="0.48"/>
</g>
<defs>
<filter id="filter0_d" x="0" y="0" width="100" height="100" filterUnits="userSpaceOnUse" color-interpolation-filters="sRGB">
<feFlood flood-opacity="0" result="BackgroundImageFix"/>
<feColorMatrix in="SourceAlpha" type="matrix" values="0 0 0 0 0 0 0 0 0 0 0 0 0 0 0 0 0 0 127 0"/>
<feOffset dy="4"/>
<feGaussianBlur stdDeviation="2"/>
<feColorMatrix type="matrix" values="0 0 0 0 0 0 0 0 0 0 0 0 0 0 0 0 0 0 0.25 0"/>
<feBlend mode="normal" in2="BackgroundImageFix" result="effect1_dropShadow"/>
<feBlend mode="normal" in="SourceGraphic" in2="effect1_dropShadow" result="shape"/>
</filter>
<clipPath id="clip0">
<rect width="92" height="92" fill="white" transform="translate(4)"/>
</clipPath>
</defs>
</svg>
